# xmcd CD database file
#
# Track frame offsets:
#	150
#	13650
#	35550
#
# Disc length: 808 seconds
#
# Revision: 2
# Processed by: cddbd v1.5.2PL0 Copyright (c) Steve Scherf et al.
# Submitted via: CDex 1.70beta2
#
DISCID=1c032603
DTITLE=Kazik na zywo - Andrzej Gołota
DYEAR=1900
DGENRE=Rock
TTITLE0=Andrzej Gołota
TTITLE1=Łysy jedzie do Moskwy
TTITLE2=12 groszy
EXTD=
EXTT0=
EXTT1=
EXTT2=
PLAYORDER=
